<svg width="1032" height="165" viewBox="0 0 1032 165" fill="none" xmlns="http://www.w3.org/2000/svg">
<mask id="mask0_2469_55" style="mask-type:alpha" maskUnits="userSpaceOnUse" x="5" y="41" width="82" height="82">
<circle cx="46" cy="82" r="41" fill="#D9D9D9"/>
</mask>
<g mask="url(#mask0_2469_55)">
<circle cx="46" cy="82" r="41" fill="#1A1A1A"/>
<path d="M46 73.9943L52.9327 77.9969V86.0021L46 90.0048L39.0673 86.0021V77.9969L46 73.9943Z" fill="white"/>
<path d="M46 73.9943L52.9327 77.9969M46 73.9943L39.0673 77.9969M46 73.9943L-4.63758 44.7587M52.9327 77.9969V86.0021M52.9327 77.9969V27.7549M52.9327 86.0021L46 90.0048M52.9327 86.0021L100.868 58.3267M46 90.0048L39.0673 86.0021M46 90.0048L91.1682 116.083M39.0673 86.0021V77.9969M39.0673 86.0021V132.095M39.0673 77.9969L-9.93919 106.291" stroke="white"/>
</g>
<path d="M156.16 99.6875C156.16 107.479 153.639 113.312 148.598 117.188C143.556 121.062 136.389 123 127.098 123H101.098V41.4375H125.66C129.077 41.4375 132.431 41.7292 135.723 42.3125C139.014 42.8542 141.952 43.8958 144.535 45.4375C147.16 46.9792 149.285 49.125 150.91 51.875C152.535 54.5833 153.348 58.1458 153.348 62.5625C153.348 71.0208 149.118 76.7917 140.66 79.875C150.993 83.0417 156.16 89.6458 156.16 99.6875ZM144.785 62.5625C144.785 59.6875 144.181 57.3333 142.973 55.5C141.764 53.6667 140.223 52.2708 138.348 51.3125C136.473 50.3125 134.41 49.6458 132.16 49.3125C129.91 48.9375 127.743 48.75 125.66 48.75H109.66V76.4375H125.66C127.993 76.4375 130.285 76.2708 132.535 75.9375C134.785 75.5625 136.806 74.875 138.598 73.875C140.389 72.8333 141.868 71.4167 143.035 69.625C144.202 67.8333 144.785 65.4792 144.785 62.5625ZM147.598 99.6875C147.598 94.0625 145.764 89.9792 142.098 87.4375C138.473 84.8542 133.473 83.5625 127.098 83.5625H109.66V115.688H127.098C133.473 115.688 138.473 114.354 142.098 111.688C145.764 108.979 147.598 104.979 147.598 99.6875ZM223.098 91.875C223.098 102.208 220.889 110.229 216.473 115.938C212.098 121.604 205.389 124.438 196.348 124.438C189.098 124.438 183.014 122.542 178.098 118.75C173.181 114.917 169.743 109.208 167.785 101.625L175.223 98.8125C177.014 105.562 179.681 110.312 183.223 113.062C186.764 115.771 191.139 117.125 196.348 117.125C200.181 117.125 203.285 116.354 205.66 114.812C208.077 113.271 209.91 111.312 211.16 108.938C212.452 106.521 213.327 103.833 213.785 100.875C214.243 97.875 214.473 94.875 214.473 91.875V41.4375H223.098V91.875ZM292.973 123H240.848V41.4375H292.973V48.75H249.41V77.9375H281.535V85.25H249.41V115.688H292.973V123ZM366.41 101.625C364.285 108.625 360.806 114.188 355.973 118.312C351.139 122.396 345.056 124.438 337.723 124.438C332.014 124.438 327.181 123.271 323.223 120.938C319.264 118.562 316.014 115.438 313.473 111.562C310.973 107.688 309.16 103.208 308.035 98.125C306.952 93.0417 306.41 87.7708 306.41 82.3125C306.41 76.8542 306.952 71.5833 308.035 66.5C309.16 61.4167 310.973 56.9167 313.473 53C316.014 49.0833 319.264 45.9583 323.223 43.625C327.181 41.25 332.014 40.0625 337.723 40.0625C342.764 40.0625 347.077 40.9583 350.66 42.75C354.243 44.5417 356.889 47.2708 358.598 50.9375V41.4375H365.91V68.1875H358.598C358.598 65.3125 358.035 62.6042 356.91 60.0625C355.827 57.4792 354.348 55.25 352.473 53.375C350.598 51.5 348.368 50.0417 345.785 49C343.243 47.9167 340.556 47.375 337.723 47.375C333.306 47.375 329.639 48.4167 326.723 50.5C323.848 52.5833 321.535 55.3125 319.785 58.6875C318.035 62.0625 316.785 65.8125 316.035 69.9375C315.327 74.0625 314.973 78.1875 314.973 82.3125C314.973 86.3958 315.327 90.5208 316.035 94.6875C316.785 98.8125 318.035 102.542 319.785 105.875C321.535 109.167 323.848 111.875 326.723 114C329.639 116.083 333.306 117.125 337.723 117.125C347.889 117.125 354.973 110.979 358.973 98.6875L366.41 101.625ZM435.785 69H428.473V48.75H410.973V115.688H424.098V123H389.16V115.688H402.348V48.75H384.848V69H377.535V41.4375H435.785V69ZM493.973 123H459.035V115.688H472.223V48.75H459.035V41.4375H493.973V48.75H480.848V115.688H493.973V123Z" fill="black"/>
<path d="M529.573 123V32.376H584.229V40.824H538.789V71.672H581.029V80.12H538.789V123H529.573ZM641.786 30.072C669.05 30.072 689.018 50.68 689.018 77.688C689.018 104.824 668.794 125.304 641.786 125.304C614.778 125.304 594.554 104.696 594.554 77.688C594.554 50.68 614.65 30.072 641.786 30.072ZM604.538 77.688C604.538 99.832 619.898 116.856 641.786 116.856C664.186 116.856 679.034 99.448 679.034 77.688C679.034 55.928 663.802 38.52 641.658 38.52C620.026 38.52 604.538 55.544 604.538 77.688ZM705.912 89.72V32.376H715.128V88.824C715.128 106.616 724.216 116.856 739.064 116.856C753.912 116.856 763 106.616 763 88.824V32.376H772.216V89.72C772.216 110.584 761.08 125.304 739.064 125.304C717.176 125.304 705.912 110.84 705.912 89.72ZM823.87 32.376C851.134 32.376 871.614 51.448 871.614 77.688C871.614 104.312 850.622 123 824.51 123H793.918V32.376H823.87ZM821.182 114.552C846.142 114.552 861.63 98.68 861.63 77.688C861.63 56.568 845.63 40.824 821.694 40.824H803.134V114.552H821.182ZM899.289 123H890.073V32.376H918.617C936.537 32.376 947.801 40.696 947.801 56.568C947.801 69.368 939.609 78.584 924.761 79.992L950.745 123H939.481L914.649 80.888H899.289V123ZM899.289 72.44H916.313C930.009 72.44 937.817 66.808 937.817 56.568C937.817 46.2 929.625 40.824 916.313 40.824H899.289V72.44ZM965.948 123V32.376H1022.14V40.824H975.164V71.672H1019.07V80.12H975.164V114.552H1023.68V123H965.948Z" fill="#8D0000"/>
<path d="M0 140H1032" stroke="black" stroke-width="5"/>
</svg>
